PathFileType	4	(X/Y/Z)	D:\TRACE\spot_10-12-23\spot_arm_motion_1_2-v60.trc
DataRate	CameraRate	NumFrames	NumMarkers	Units	OrigDataRate	OrigDataStartFrame	OrigNumFrames
100.00	100.00	      28	9	mm	100.00	1751	      7000
Frame#	Time	front left toe			Front right toe			aft left toe			aft right toe			Arm			FL body			FR body			AL Body			AR Body			
		X1	Y1	Z1	X2	Y2	Z2	X3	Y3	Z3	X4	Y4	Z4	X5	Y5	Z5	X6	Y6	Z6	X7	Y7	Z7	X8	Y8	Z8	X9	Y9	Z9	

1751	17.500	-350.51968	17.18525	-37.19445	162.45026	20.78735	-127.81848	-242.87514	35.72364	547.94653	266.72678	36.23033	453.39655	1.10914	788.28766	-757.59253	-219.40271	539.16187	-134.09047	-68.95800	542.06537	-161.82909	-65.38925	579.30548	735.62885	84.16914	576.91663	711.83252	
1752	17.510	-349.64539	17.01680	-37.15543	163.29803	20.83250	-127.85011	-241.98976	35.66825	548.07922	267.84564	36.06076	453.52496	-1.88037	788.68237	-757.84222	-218.81131	539.33661	-133.99585	-68.08852	542.21252	-161.67545	-64.05206	579.01105	735.60144	85.32487	576.44794	711.95966	
1753	17.520	-349.15298	17.02591	-37.14729	164.32741	21.45621	-127.97657	-240.87354	35.57525	548.00305	268.89139	35.83175	453.47382	-4.69846	788.73657	-758.05402	-218.31004	539.49963	-133.54030	-67.87846	542.41962	-161.63885	-63.06985	579.25262	735.75049	86.34710	576.17303	711.34241	
1754	17.530	-348.54135	17.06904	-36.84423	164.92992	21.59116	-128.09862	-240.08568	35.78439	548.19373	269.80637	35.62721	453.39163	-7.70879	788.80560	-758.14380	-218.02119	539.63458	-133.17491	-67.63749	542.53949	-161.51332	-60.81652	578.90295	735.94781	88.12130	576.13824	711.19202	
1755	17.540	-347.68057	16.86186	-36.52361	165.38628	21.92978	-128.00397	-239.01222	35.75933	548.37451	270.78607	35.33558	453.45993	-10.32403	788.53693	-758.48523	-217.97591	539.69781	-132.67978	-67.62746	542.59052	-161.38794	-58.83418	578.84839	736.20612	90.04899	576.00574	711.00879	
1756	17.550	-347.26349	16.78691	-36.40125	166.21840	22.10423	-128.19351	-237.84732	35.51422	548.51843	271.74161	34.90168	453.17279	-12.28861	788.31091	-758.40045	-218.12976	539.67120	-132.33560	-67.58651	542.44391	-160.67966	-57.36390	578.58704	735.79541	92.21253	576.09045	711.26166	
1757	17.560	-346.43707	16.58279	-36.03967	166.73474	22.23631	-128.41449	-237.14772	35.65003	548.70239	272.85815	34.77029	453.20212	-13.85751	787.92236	-758.55939	-218.39714	539.50043	-131.89207	-67.88863	542.49359	-160.61180	-55.23101	578.39587	735.56921	93.67807	575.09332	710.25287	
1758	17.570	-345.77631	16.42501	-35.74027	167.24916	22.42433	-128.42906	-236.03120	35.69374	548.76941	273.79193	34.44523	453.04541	-14.98075	787.58380	-758.47565	-218.71661	539.51813	-131.51306	-68.42883	542.49115	-160.57385	-53.66356	578.36755	735.43030	95.36219	574.96655	709.65369	
1759	17.580	-345.04004	16.20202	-35.38037	167.94270	22.65612	-128.53011	-234.99988	35.60279	548.81415	274.67151	34.21055	453.13486	-15.25229	787.35858	-758.49005	-219.00912	539.37415	-131.08429	-68.87158	542.39337	-160.50664	-52.01095	578.57605	735.56897	97.16396	575.05640	709.42432	
1760	17.590	-344.41422	16.17548	-35.18253	168.68867	22.78854	-128.72810	-233.92775	35.29697	548.93817	275.51886	33.69729	452.66159	-15.12063	787.03741	-758.37939	-219.16019	539.10303	-130.57646	-69.32768	542.38953	-160.91347	-50.15631	578.34821	735.57867	98.73750	575.22101	709.01569	
1761	17.600	-343.71652	15.95576	-35.19546	169.18706	22.89047	-128.69475	-233.08203	34.98904	549.13763	276.66663	33.86512	452.75885	-14.49411	786.77795	-758.42078	-219.34480	539.02057	-130.34390	-69.63136	542.25372	-160.94324	-48.48117	578.51544	736.31415	99.94688	575.17786	708.72968	
1762	17.610	-342.85400	15.92039	-35.01740	170.05569	23.08703	-128.74411	-232.34937	34.86262	549.32416	277.25092	33.69791	452.68103	-13.16047	786.50916	-758.13928	-219.34271	538.93536	-130.19072	-69.63986	542.21997	-160.93118	-46.82530	578.04376	735.73187	100.76277	575.07056	708.44556	
1763	17.620	-342.11697	16.08342	-34.94832	170.47389	22.63908	-128.57021	-231.60646	34.77154	549.37335	277.99908	33.55891	452.86792	-11.43140	786.17407	-758.14917	-219.11217	538.89117	-130.04941	-69.50893	542.25244	-160.89317	-45.87379	577.79797	735.77081	101.80885	575.22058	708.10376	
1764	17.630	-340.85501	15.84235	-34.86699	171.62880	23.23504	-128.64897	-230.46454	34.32988	549.40375	278.92422	33.07146	452.73996	-8.89283	785.82501	-757.71875	-218.80032	538.84631	-129.95908	-69.10102	542.27393	-160.85349	-44.95887	577.68231	735.48071	102.60901	575.09888	708.35358	
1765	17.640	-340.18488	16.09195	-34.91339	172.79680	23.27020	-128.40506	-229.73959	34.14277	549.38922	279.56387	33.53265	452.82227	-6.43267	785.85815	-757.56445	-218.40399	538.79974	-130.04541	-68.43742	542.20612	-160.79366	-44.74632	577.57190	735.43304	102.86792	575.08722	708.16168	
1766	17.650	-339.25458	16.18877	-34.88026	173.54852	23.21434	-128.35231	-229.00810	33.88887	549.51959	280.51859	33.30090	452.96637	-4.29794	785.60376	-757.36517	-217.70624	538.72577	-130.19601	-67.64416	542.12360	-160.42157	-44.52639	577.40631	735.50250	103.13284	574.85260	708.50439	
1767	17.660	-338.26608	16.29407	-34.97159	174.51985	23.49729	-128.35078	-228.09703	33.44506	549.65436	281.33527	33.22709	453.14581	-1.16857	785.60950	-757.16644	-216.79309	538.58820	-130.26114	-67.65206	542.93445	-161.91663	-44.33089	577.17755	735.53076	103.46320	574.62012	708.62360	
1768	17.670	-337.20605	16.20026	-34.83416	175.39102	22.81047	-128.19661	-227.25031	33.07324	549.63818	282.02655	33.13853	453.40887	1.71867	785.69873	-756.89288	-215.69696	538.47290	-130.47380	-66.72559	542.96411	-162.09541	-44.20449	577.06488	735.65845	103.73401	574.45789	708.70612	
1769	17.680	-336.06403	16.07849	-34.81030	176.66205	23.39785	-127.88844	-226.62709	32.70100	549.59711	282.92471	32.73132	453.19031	4.21715	785.57483	-756.64069	-214.37991	538.45911	-130.52704	-65.08475	542.46576	-161.73477	-44.16827	576.80872	735.69769	103.85213	574.20734	708.85443	
1770	17.690	-335.22897	16.64216	-34.83942	178.33142	23.62840	-127.43015	-225.87758	32.27770	549.55347	283.66321	33.01883	453.84592	6.57289	785.69537	-756.69031	-213.01793	538.60620	-130.69437	-63.73924	542.24445	-161.19093	-44.13908	576.34784	735.74237	104.10809	573.85565	709.16162	
1771	17.700	-334.18301	16.78704	-35.01468	178.86620	23.56832	-127.54489	-225.14493	31.98060	549.60950	284.70328	32.77158	454.04184	8.48703	785.78320	-756.47198	-211.57742	538.54156	-131.14159	-62.23221	542.30664	-161.24023	-43.82761	576.13129	736.05054	106.14809	575.33728	711.54016	
1772	17.710	-333.19519	16.81476	-35.14234	180.13603	23.38740	-127.53534	-224.25412	31.64265	549.67096	285.49963	32.42535	454.06155	10.26703	785.72638	-756.62592	-210.02292	538.45642	-131.25203	-60.47120	542.25641	-161.15648	-43.73533	575.89703	736.14197	104.78973	574.05139	710.19269	
1773	17.720	-332.08890	16.90096	-34.97247	181.13503	23.28957	-127.35423	-223.17636	31.13894	549.78180	286.45703	32.43020	454.33627	11.06634	785.81213	-756.73730	-208.29771	538.60077	-131.40976	-58.86523	542.29443	-161.09763	-43.20395	575.57520	736.20789	105.24525	573.96936	711.06561	
1774	17.730	-330.99350	17.11679	-35.06790	182.39169	23.16619	-127.28072	-222.31831	30.84285	549.86768	287.41873	32.27995	454.49908	11.85660	785.78503	-756.87946	-206.82088	538.65979	-131.51064	-57.13248	542.24725	-160.96713	-42.77786	575.44189	736.26056	105.62550	573.81073	711.28967	
1775	17.740	-329.94046	17.26263	-35.15868	183.23500	23.11256	-127.04330	-221.60504	30.79988	549.92493	288.13068	31.98735	454.56100	12.57148	785.70337	-757.10284	-205.29752	538.74347	-131.68234	-55.61789	542.36133	-160.96219	-42.41770	575.43378	736.32904	106.20049	573.73511	711.48798	
1776	17.750	-329.23792	17.41676	-35.05140	184.42911	23.42931	-126.84293	-220.42253	30.52811	549.94775	289.54019	31.84239	454.49161	12.52056	785.74469	-757.26318	-203.65829	538.86774	-131.55431	-54.22587	542.40228	-160.87386	-41.50646	575.04749	736.25360	107.30934	573.23419	711.32483	
1777	17.760	-327.85452	17.48831	-35.12428	185.46852	23.39007	-126.77289	-219.59529	30.39705	549.87231	290.26315	31.60210	454.73245	11.81113	785.81006	-757.28961	-202.20399	539.00568	-131.68134	-52.89939	542.48450	-160.86595	-40.23878	574.94031	736.72406	108.00475	572.99640	711.49786	
1778	17.770	-327.02243	17.43594	-34.92027	186.20892	23.70096	-126.72042	-218.65451	30.14788	549.95197	291.26788	31.30334	454.81668	11.12541	785.80969	-757.19312	-201.22133	539.13684	-131.60997	-51.52910	542.82874	-161.44453	-39.41774	574.90332	737.06488	109.30704	572.62012	711.59808	
